<svg
    xmlns="http://www.w3.org/2000/svg"
    width="22"
    height="22"
    viewBox="0 0 22 22"
    fill="none"
>
    <path
    d="M21 19.7302V8.93651C21 8.73937 20.9548 8.54494 20.868 8.36862C20.7812 8.19229 20.6552 8.03892 20.5 7.92063L11.75 1.25397C11.5336 1.08911 11.2705 1 11 1C10.7295 1 10.4664 1.08911 10.25 1.25397L1.5 7.92063C1.34476 8.03892 1.21875 8.19229 1.13197 8.36862C1.04518 8.54494 1 8.73937 1 8.93651V19.7302C1 20.0669 1.1317 20.3899 1.36612 20.6281C1.60054 20.8662 1.91848 21 2.25 21H7.25C7.58152 21 7.89946 20.8662 8.13388 20.6281C8.3683 20.3899 8.5 20.0669 8.5 19.7302V15.9206C8.5 15.5839 8.6317 15.2609 8.86612 15.0227C9.10054 14.7846 9.41848 14.6508 9.75 14.6508H12.25C12.5815 14.6508 12.8995 14.7846 13.1339 15.0227C13.3683 15.2609 13.5 15.5839 13.5 15.9206V19.7302C13.5 20.0669 13.6317 20.3899 13.8661 20.6281C14.1005 20.8662 14.4185 21 14.75 21H19.75C20.0815 21 20.3995 20.8662 20.6339 20.6281C20.8683 20.3899 21 20.0669 21 19.7302Z"
    fill="black"
    stroke="black"
    stroke-width="2"
    stroke-linecap="round"
    stroke-linejoin="round"
    />
</svg>