<svg
    width="20"
    height="20"
    viewBox="0 0 20 20"
    fill="none"
    xmlns="http://www.w3.org/2000/svg"
>
    <path
    d="M1 20C0.716667 20 0.479333 19.8933 0.288 19.68C0.0966668 19.4667 0.000666667 19.203 0 18.8889V7.77778C0 7.46296 0.0960001 7.19926 0.288 6.98667C0.48 6.77407 0.717333 6.66741 1 6.66667H4.5C4.78333 6.66667 5.021 6.77333 5.213 6.98667C5.405 7.2 5.50067 7.4637 5.5 7.77778V18.8889C5.5 19.2037 5.404 19.4678 5.212 19.6811C5.02 19.8944 4.78267 20.0007 4.5 20H1ZM8.25 20C7.96667 20 7.72933 19.8933 7.538 19.68C7.34667 19.4667 7.25067 19.203 7.25 18.8889V1.11111C7.25 0.796296 7.346 0.532593 7.538 0.32C7.73 0.107408 7.96733 0.000740741 8.25 0H11.75C12.0333 0 12.271 0.106667 12.463 0.32C12.655 0.533333 12.7507 0.797037 12.75 1.11111V18.8889C12.75 19.2037 12.654 19.4678 12.462 19.6811C12.27 19.8944 12.0327 20.0007 11.75 20H8.25ZM15.5 20C15.2167 20 14.9793 19.8933 14.788 19.68C14.5967 19.4667 14.5007 19.203 14.5 18.8889V10C14.5 9.68518 14.596 9.42148 14.788 9.20889C14.98 8.99629 15.2173 8.88963 15.5 8.88889H19C19.2833 8.88889 19.521 8.99555 19.713 9.20889C19.905 9.42222 20.0007 9.68592 20 10V18.8889C20 19.2037 19.904 19.4678 19.712 19.6811C19.52 19.8944 19.2827 20.0007 19 20H15.5Z"
    fill="black"
    />
</svg>