<svg
    width="25"
    height="25"
    widthviewBox="0 0 17 23"
    fill="none"
    xmlns="http://www.w3.org/2000/svg"
>
    <path
    d="M17 7.90625C17 8.3405 16.9299 8.75228 16.7897 9.1416C16.6495 9.53092 16.4466 9.88281 16.181 10.1973C15.9154 10.5117 15.6092 10.7775 15.2624 10.9946C14.9156 11.2118 14.5282 11.3577 14.1003 11.4326C14.0191 11.8594 13.8752 12.2524 13.6686 12.6118C13.462 12.9712 13.2001 13.2819 12.8828 13.5439C12.5655 13.806 12.2188 14.0081 11.8424 14.1504C11.4661 14.2926 11.0603 14.3675 10.625 14.375H6.375C6.13889 14.375 5.91385 14.4124 5.69987 14.4873C5.48589 14.5622 5.29036 14.667 5.11328 14.8018C4.9362 14.9365 4.78125 15.0975 4.64844 15.2847C4.51562 15.4718 4.41602 15.6815 4.34961 15.9136C4.74805 16.0109 5.11328 16.1681 5.44531 16.3853C5.77734 16.6024 6.0651 16.8682 6.30859 17.1826C6.55208 17.4971 6.74023 17.8415 6.87305 18.2158C7.00586 18.5902 7.07595 18.987 7.08333 19.4062C7.08333 19.9004 6.9911 20.3646 6.80664 20.7988C6.62218 21.2331 6.36762 21.6149 6.04297 21.9443C5.71832 22.2738 5.34201 22.5321 4.91406 22.7192C4.48611 22.9064 4.02865 23 3.54167 23C3.05469 23 2.59722 22.9064 2.16927 22.7192C1.74132 22.5321 1.36502 22.2775 1.04036 21.9556C0.715712 21.6336 0.461154 21.2518 0.276693 20.8101C0.0922309 20.3683 0 19.9004 0 19.4062C0 18.9795 0.0700955 18.5715 0.210286 18.1821C0.350477 17.7928 0.546007 17.4447 0.796875 17.1377C1.04774 16.8307 1.34657 16.5649 1.69336 16.3403C2.04015 16.1157 2.42014 15.966 2.83333 15.8911V7.10889C2.42014 7.02653 2.04015 6.87679 1.69336 6.65967C1.34657 6.44255 1.04774 6.1805 0.796875 5.87354C0.546007 5.56657 0.350477 5.21468 0.210286 4.81787C0.0700955 4.42106 0 4.01302 0 3.59375C0 3.09961 0.0922309 2.63542 0.276693 2.20117C0.461154 1.76693 0.712023 1.38883 1.0293 1.06689C1.34657 0.744954 1.72287 0.486654 2.1582 0.291992C2.59353 0.0973307 3.05469 0 3.54167 0C4.02865 0 4.48611 0.0935872 4.91406 0.280762C5.34201 0.467936 5.71463 0.726237 6.0319 1.05566C6.34917 1.38509 6.60373 1.76693 6.79557 2.20117C6.98741 2.63542 7.08333 3.09961 7.08333 3.59375C7.08333 4.02051 7.01324 4.42855 6.87305 4.81787C6.73286 5.20719 6.53733 5.55534 6.28646 5.8623C6.03559 6.16927 5.73676 6.43506 5.38997 6.65967C5.04319 6.88428 4.66319 7.03402 4.25 7.10889V13.6787C4.5599 13.4391 4.89562 13.2557 5.25716 13.1284C5.61871 13.0011 5.99132 12.9375 6.375 12.9375H10.625C10.8611 12.9375 11.0862 12.9001 11.3001 12.8252C11.5141 12.7503 11.7096 12.6455 11.8867 12.5107C12.0638 12.376 12.2188 12.215 12.3516 12.0278C12.4844 11.8407 12.584 11.631 12.6504 11.3989C12.252 11.3016 11.8867 11.1444 11.5547 10.9272C11.2227 10.7101 10.9349 10.4481 10.6914 10.1411C10.4479 9.83415 10.2598 9.48975 10.127 9.10791C9.99414 8.72607 9.92404 8.32552 9.91667 7.90625C9.91667 7.41211 10.0089 6.94792 10.1934 6.51367C10.3778 6.07943 10.6287 5.70133 10.946 5.37939C11.2632 5.05745 11.6395 4.79915 12.0749 4.60449C12.5102 4.40983 12.9714 4.3125 13.4583 4.3125C13.9453 4.3125 14.4028 4.40609 14.8307 4.59326C15.2587 4.78044 15.6313 5.03874 15.9486 5.36816C16.2658 5.69759 16.5204 6.07943 16.7122 6.51367C16.9041 6.94792 17 7.41211 17 7.90625ZM1.41667 3.59375C1.41667 3.89323 1.47201 4.17399 1.58268 4.43604C1.69336 4.69808 1.84462 4.92643 2.03646 5.12109C2.2283 5.31576 2.45334 5.46924 2.71159 5.58154C2.96984 5.69385 3.24653 5.75 3.54167 5.75C3.83681 5.75 4.1135 5.69385 4.37174 5.58154C4.62999 5.46924 4.85503 5.31576 5.04688 5.12109C5.23872 4.92643 5.38997 4.69808 5.50065 4.43604C5.61133 4.17399 5.66667 3.89323 5.66667 3.59375C5.66667 3.29427 5.61133 3.01351 5.50065 2.75146C5.38997 2.48942 5.23872 2.26107 5.04688 2.06641C4.85503 1.87174 4.62999 1.71826 4.37174 1.60596C4.1135 1.49365 3.83681 1.4375 3.54167 1.4375C3.24653 1.4375 2.96984 1.49365 2.71159 1.60596C2.45334 1.71826 2.2283 1.87174 2.03646 2.06641C1.84462 2.26107 1.69336 2.48942 1.58268 2.75146C1.47201 3.01351 1.41667 3.29427 1.41667 3.59375ZM5.66667 19.4062C5.66667 19.1068 5.61133 18.826 5.50065 18.564C5.38997 18.3019 5.23872 18.0736 5.04688 17.8789C4.85503 17.6842 4.62999 17.5308 4.37174 17.4185C4.1135 17.3062 3.83681 17.25 3.54167 17.25C3.24653 17.25 2.96984 17.3062 2.71159 17.4185C2.45334 17.5308 2.2283 17.6842 2.03646 17.8789C1.84462 18.0736 1.69336 18.3019 1.58268 18.564C1.47201 18.826 1.41667 19.1068 1.41667 19.4062C1.41667 19.7057 1.47201 19.9865 1.58268 20.2485C1.69336 20.5106 1.84462 20.7389 2.03646 20.9336C2.2283 21.1283 2.45334 21.2817 2.71159 21.394C2.96984 21.5063 3.24653 21.5625 3.54167 21.5625C3.83681 21.5625 4.1135 21.5063 4.37174 21.394C4.62999 21.2817 4.85503 21.1283 5.04688 20.9336C5.23872 20.7389 5.38997 20.5106 5.50065 20.2485C5.61133 19.9865 5.66667 19.7057 5.66667 19.4062ZM13.4583 10.0625C13.7535 10.0625 14.0302 10.0063 14.2884 9.89404C14.5467 9.78174 14.7717 9.62825 14.9635 9.43359C15.1554 9.23893 15.3066 9.01058 15.4173 8.74854C15.528 8.48649 15.5833 8.20573 15.5833 7.90625C15.5833 7.60677 15.528 7.32601 15.4173 7.06396C15.3066 6.80192 15.1554 6.57357 14.9635 6.37891C14.7717 6.18424 14.5467 6.03076 14.2884 5.91846C14.0302 5.80615 13.7535 5.75 13.4583 5.75C13.1632 5.75 12.8865 5.80615 12.6283 5.91846C12.37 6.03076 12.145 6.18424 11.9531 6.37891C11.7613 6.57357 11.61 6.80192 11.4993 7.06396C11.3887 7.32601 11.3333 7.60677 11.3333 7.90625C11.3333 8.20573 11.3887 8.48649 11.4993 8.74854C11.61 9.01058 11.7613 9.23893 11.9531 9.43359C12.145 9.62825 12.37 9.78174 12.6283 9.89404C12.8865 10.0063 13.1632 10.0625 13.4583 10.0625Z"
    fill="#2460BA"
    />
</svg>