<svg
    viewBox="0 0 20 20"
    height="25"
    fill="none"
    xmlns="http://www.w3.org/2000/svg"
>
    <path
    d="M14.4444 1.05545e-07C15.0051 -0.000167978 15.5451 0.200428 15.9562 0.561576C16.3673 0.922724 16.6191 1.41773 16.6611 1.94737L16.6667 2.10526V7.36842H18.3333C18.7476 7.36844 19.1471 7.51465 19.4538 7.77855C19.7605 8.04244 19.9524 8.40509 19.9922 8.79579L20 8.94737V16.8421C20 17.6476 19.6752 18.4226 19.0919 19.0087C18.5086 19.5947 17.711 19.9475 16.8622 19.9947L16.6667 20H2.22222C1.66158 20.0002 1.12159 19.7996 0.710502 19.4384C0.299412 19.0773 0.0476038 18.5823 0.00555579 18.0526L1.11409e-07 17.8947V2.10526C-0.00017731 1.57413 0.211563 1.06256 0.592774 0.673108C0.973986 0.283653 1.49649 0.0450983 2.05556 0.00526338L2.22222 1.05545e-07H14.4444ZM17.7778 9.47368H16.6667V17.8947C16.9614 17.8947 17.244 17.7838 17.4523 17.5864C17.6607 17.389 17.7778 17.1213 17.7778 16.8421V9.47368ZM8.88889 10.5263H5.55556C5.27236 10.5266 4.99996 10.6293 4.79403 10.8135C4.58811 10.9977 4.46418 11.2494 4.44759 11.5173C4.43099 11.7851 4.52297 12.0488 4.70474 12.2546C4.88651 12.4603 5.14434 12.5925 5.42556 12.6242L5.55556 12.6316H8.88889C9.17209 12.6313 9.44448 12.5285 9.65041 12.3444C9.85634 12.1602 9.98026 11.9085 9.99686 11.6406C10.0135 11.3728 9.92147 11.1091 9.73971 10.9033C9.55794 10.6976 9.30011 10.5654 9.01889 10.5337L8.88889 10.5263ZM11.1111 5.26316H5.55556C5.26087 5.26316 4.97826 5.37406 4.76988 5.57147C4.56151 5.76887 4.44444 6.03661 4.44444 6.31579C4.44444 6.59496 4.56151 6.86271 4.76988 7.06011C4.97826 7.25752 5.26087 7.36842 5.55556 7.36842H11.1111C11.4058 7.36842 11.6884 7.25752 11.8968 7.06011C12.1052 6.86271 12.2222 6.59496 12.2222 6.31579C12.2222 6.03661 12.1052 5.76887 11.8968 5.57147C11.6884 5.37406 11.4058 5.26316 11.1111 5.26316Z"
    fill="#2460BA"
    />
</svg>