<svg
    viewBox="0 0 20 20"
    height="25"
    fill="none"
    xmlns="http://www.w3.org/2000/svg"
>
    <path
    d="M7 3.15789C7 2.32037 7.31607 1.51715 7.87868 0.924926C8.44129 0.332706 9.20435 0 10 0C10.7956 0 11.5587 0.332706 12.1213 0.924926C12.6839 1.51715 13 2.32037 13 3.15789C13 3.99542 12.6839 4.79864 12.1213 5.39086C11.5587 5.98308 10.7956 6.31579 10 6.31579C9.20435 6.31579 8.44129 5.98308 7.87868 5.39086C7.31607 4.79864 7 3.99542 7 3.15789ZM16.5 1.05263C15.837 1.05263 15.2011 1.32989 14.7322 1.8234C14.2634 2.31692 14 2.98627 14 3.68421C14 4.38215 14.2634 5.0515 14.7322 5.54502C15.2011 6.03853 15.837 6.31579 16.5 6.31579C17.163 6.31579 17.7989 6.03853 18.2678 5.54502C18.7366 5.0515 19 4.38215 19 3.68421C19 2.98627 18.7366 2.31692 18.2678 1.8234C17.7989 1.32989 17.163 1.05263 16.5 1.05263ZM3.5 1.05263C2.83696 1.05263 2.20107 1.32989 1.73223 1.8234C1.26339 2.31692 1 2.98627 1 3.68421C1 4.38215 1.26339 5.0515 1.73223 5.54502C2.20107 6.03853 2.83696 6.31579 3.5 6.31579C4.16304 6.31579 4.79893 6.03853 5.26777 5.54502C5.73661 5.0515 6 4.38215 6 3.68421C6 2.98627 5.73661 2.31692 5.26777 1.8234C4.79893 1.32989 4.16304 1.05263 3.5 1.05263ZM7.625 7.36842C7.06141 7.36842 6.52091 7.60409 6.1224 8.02358C5.72388 8.44307 5.5 9.01202 5.5 9.60526V15.2632C5.5 16.5194 5.97411 17.7243 6.81802 18.6126C7.66193 19.5009 8.80653 20 10 20C11.1935 20 12.3381 19.5009 13.182 18.6126C14.0259 17.7243 14.5 16.5194 14.5 15.2632V9.60526C14.5 9.01202 14.2761 8.44307 13.8776 8.02358C13.4791 7.60409 12.9386 7.36842 12.375 7.36842H7.625ZM4.5 9.60526C4.5 8.76316 4.801 7.99421 5.296 7.41211C5.15739 7.38292 5.01636 7.36828 4.875 7.36842H2.125C1.56142 7.36842 1.02091 7.60409 0.622398 8.02358C0.223883 8.44307 1.33566e-07 9.01202 1.33566e-07 9.60526V14.7368C-0.000166827 15.3731 0.156197 15.9985 0.453865 16.5523C0.751533 17.106 1.18036 17.5691 1.69858 17.8966C2.2168 18.2241 2.80675 18.4047 3.41098 18.4209C4.01522 18.4371 4.61313 18.2883 5.1465 17.9889C4.72071 17.1504 4.49861 16.214 4.5 15.2632V9.60526ZM15.5 15.2632C15.5 16.2484 15.266 17.1763 14.8535 17.9889C15.3869 18.2883 15.9848 18.4371 16.589 18.4209C17.1932 18.4047 17.7832 18.2241 18.3014 17.8966C18.8196 17.5691 19.2485 17.106 19.5461 16.5523C19.8438 15.9985 20.0002 15.3731 20 14.7368V9.60526C20 9.01202 19.7761 8.44307 19.3776 8.02358C18.9791 7.60409 18.4386 7.36842 17.875 7.36842H15.125C14.981 7.36842 14.84 7.38368 14.704 7.41211C15.2175 8.0146 15.5011 8.79582 15.5 9.60526V15.2632Z"
    fill="#2460BA"
    />
</svg>